<?xml version="1.0" encoding="UTF-8" standalone="no"?>
<!DOCTYPE svg PUBLIC "-//W3C//DTD SVG 1.1//EN"
 "http://www.w3.org/Graphics/SVG/1.1/DTD/svg11.dtd">
<!-- Generated by graphviz version 4.0.0 (0)
 -->
<!-- Pages: 1 -->
<svg width="807pt" height="561pt"
 viewBox="0.00 0.00 806.95 561.00" xmlns="http://www.w3.org/2000/svg" xmlns:xlink="http://www.w3.org/1999/xlink">
<g id="graph0" class="graph" transform="scale(1 1) rotate(0) translate(4 557)">
<polygon fill="white" stroke="transparent" points="-4,4 -4,-557 802.95,-557 802.95,4 -4,4"/>
<g id="clust1" class="cluster">
<title>cluster_wacosc</title>
<polygon fill="none" stroke="black" stroke-dasharray="1,5" points="8,-8 8,-545 621,-545 621,-8 8,-8"/>
<text text-anchor="middle" x="314.5" y="-529.8" font-family="Times,serif" font-size="14.00">WACOSC</text>
</g>
<g id="clust2" class="cluster">
<title>cluster_dev_map</title>
<polygon fill="none" stroke="black" points="165,-439 165,-514 429,-514 429,-439 165,-439"/>
<text text-anchor="middle" x="297" y="-498.8" font-family="Times,serif" font-size="14.00">find_devices_files implementations</text>
</g>
<g id="clust3" class="cluster">
<title>cluster_osc</title>
<polygon fill="none" stroke="black" points="280,-16 280,-261 446,-261 446,-16 280,-16"/>
<text text-anchor="middle" x="363" y="-245.8" font-family="Times,serif" font-size="14.00">osc handling</text>
</g>
<g id="clust4" class="cluster">
<title>cluster_wacom</title>
<polygon fill="none" stroke="black" points="106,-284 106,-431 362,-431 362,-284 106,-284"/>
<text text-anchor="middle" x="234" y="-415.8" font-family="Times,serif" font-size="14.00">Wacom</text>
</g>
<g id="clust5" class="cluster">
<title>cluster_reactivedict</title>
<polygon fill="none" stroke="black" points="124,-186 124,-261 272,-261 272,-186 124,-186"/>
<text text-anchor="middle" x="198" y="-245.8" font-family="Times,serif" font-size="14.00">Reactive</text>
</g>
<g id="clust6" class="cluster">
<title>cluster_plugins</title>
<polygon fill="none" stroke="black" points="454,-186 454,-276 613,-276 613,-186 454,-186"/>
<text text-anchor="middle" x="533.5" y="-260.8" font-family="Times,serif" font-size="14.00">Plugins</text>
<text text-anchor="middle" x="533.5" y="-245.8" font-family="Times,serif" font-size="14.00">*user action needed</text>
</g>
<g id="clust7" class="cluster">
<title>cluster_config</title>
<polygon fill="none" stroke="black" points="16,-88 16,-178 272,-178 272,-88 16,-88"/>
<text text-anchor="middle" x="144" y="-162.8" font-family="Times,serif" font-size="14.00">Config</text>
<text text-anchor="middle" x="144" y="-147.8" font-family="Times,serif" font-size="14.00">*user action needed</text>
</g>
<!-- eviocgname -->
<g id="node1" class="node">
<title>eviocgname</title>
<ellipse fill="none" stroke="black" cx="340" cy="-465" rx="65.79" ry="18"/>
<text text-anchor="middle" x="340" y="-461.3" font-family="Handlee" font-size="14.00">eviocgname</text>
</g>
<!-- thread -->
<g id="node9" class="node">
<title>thread</title>
<ellipse fill="none" stroke="black" cx="279" cy="-382" rx="40.09" ry="18"/>
<text text-anchor="middle" x="279" y="-378.3" font-family="Handlee" font-size="14.00">thread</text>
</g>
<!-- eviocgname&#45;&gt;thread -->
<g id="edge3" class="edge">
<title>eviocgname&#45;&gt;thread</title>
<path fill="none" stroke="black" d="M327.36,-447.22C325.47,-444.71 323.44,-442.01 321.32,-439.2"/>
<polygon fill="black" stroke="black" points="323.96,-436.88 315.15,-431 318.37,-441.09 323.96,-436.88"/>
</g>
<!-- evdev -->
<g id="node2" class="node">
<title>evdev</title>
<ellipse fill="none" stroke="black" cx="218" cy="-465" rx="38.19" ry="18"/>
<text text-anchor="middle" x="218" y="-461.3" font-family="Handlee" font-size="14.00">evdev</text>
</g>
<!-- evdev&#45;&gt;thread -->
<g id="edge4" class="edge">
<title>evdev&#45;&gt;thread</title>
<path fill="none" stroke="black" d="M230.34,-447.61C232.33,-444.97 234.47,-442.13 236.72,-439.15"/>
<polygon fill="black" stroke="black" points="239.63,-441.09 242.85,-431 234.04,-436.88 239.63,-441.09"/>
</g>
<!-- OSCInterface -->
<g id="node3" class="node">
<title>OSCInterface</title>
<ellipse fill="none" stroke="black" cx="362" cy="-114" rx="70.69" ry="18"/>
<text text-anchor="middle" x="362" y="-110.3" font-family="Handlee" font-size="14.00">OSCInterface</text>
</g>
<!-- MagicHandler -->
<g id="node5" class="node">
<title>MagicHandler</title>
<ellipse fill="none" stroke="black" cx="361" cy="-42" rx="72.59" ry="18"/>
<text text-anchor="middle" x="361" y="-38.3" font-family="Handlee" font-size="14.00">MagicHandler</text>
</g>
<!-- OSCInterface&#45;&gt;MagicHandler -->
<g id="edge2" class="edge">
<title>OSCInterface&#45;&gt;MagicHandler</title>
<path fill="none" stroke="black" stroke-dasharray="1,5" d="M361.61,-85.67C361.54,-80.55 361.46,-75.21 361.39,-70.1"/>
<polygon fill="black" stroke="black" points="358.11,-85.75 361.75,-95.7 365.11,-85.65 358.11,-85.75"/>
<polygon fill="black" stroke="black" points="364.89,-70.05 361.24,-60.1 357.89,-70.15 364.89,-70.05"/>
<text text-anchor="middle" x="316" y="-81.68" font-family="Times,serif" font-size="14.00">callables are</text>
</g>
<!-- CarlaInterface -->
<g id="node4" class="node">
<title>CarlaInterface</title>
<ellipse fill="none" stroke="black" cx="363" cy="-212" rx="74.99" ry="18"/>
<text text-anchor="middle" x="363" y="-208.3" font-family="Handlee" font-size="14.00">CarlaInterface</text>
</g>
<!-- CarlaInterface&#45;&gt;OSCInterface -->
<g id="edge1" class="edge">
<title>CarlaInterface&#45;&gt;OSCInterface</title>
<path fill="none" stroke="black" stroke-dasharray="5,2" d="M362.82,-193.84C362.67,-179.5 362.46,-158.81 362.28,-142.22"/>
<polygon fill="black" stroke="black" points="365.78,-141.98 362.18,-132.01 358.78,-142.05 365.78,-141.98"/>
<text text-anchor="middle" x="334" y="-166.71" font-family="Times,serif" font-size="14.00">extends</text>
</g>
<!-- CARLA -->
<g id="node15" class="node">
<title>CARLA</title>
<polygon fill="none" stroke="black" points="719.05,-106.54 719.05,-121.46 692.66,-132 655.34,-132 628.95,-121.46 628.95,-106.54 655.34,-96 692.66,-96 719.05,-106.54"/>
<text text-anchor="middle" x="674" y="-110.3" font-family="Handlee" font-size="14.00">CARLA</text>
</g>
<!-- CarlaInterface&#45;&gt;CARLA -->
<g id="edge16" class="edge">
<title>CarlaInterface&#45;&gt;CARLA</title>
<path fill="none" stroke="black" stroke-dasharray="5,2" d="M417.11,-194.3C477.29,-175.72 573.39,-146.06 629.42,-128.76"/>
<polygon fill="black" stroke="black" points="415.75,-191.05 407.23,-197.35 417.82,-197.74 415.75,-191.05"/>
<polygon fill="black" stroke="black" points="630.54,-132.08 639.06,-125.78 628.48,-125.39 630.54,-132.08"/>
<text text-anchor="middle" x="507.46" y="-165.27" font-family="Times,serif" font-size="14.00">OSC</text>
</g>
<!-- stylus -->
<g id="node6" class="node">
<title>stylus</title>
<ellipse fill="none" stroke="black" cx="152" cy="-310" rx="37.89" ry="18"/>
<text text-anchor="middle" x="152" y="-306.3" font-family="Handlee" font-size="14.00">stylus</text>
</g>
<!-- ReactiveDict -->
<g id="node10" class="node">
<title>ReactiveDict</title>
<ellipse fill="none" stroke="black" cx="198" cy="-212" rx="66.09" ry="18"/>
<text text-anchor="middle" x="198" y="-208.3" font-family="Handlee" font-size="14.00">ReactiveDict</text>
</g>
<!-- stylus&#45;&gt;ReactiveDict -->
<g id="edge8" class="edge">
<title>stylus&#45;&gt;ReactiveDict</title>
<path fill="none" stroke="black" d="M160.01,-292.28C166.98,-277.73 177.21,-256.39 185.3,-239.51"/>
<polygon fill="black" stroke="black" points="188.6,-240.71 189.77,-230.18 182.29,-237.68 188.6,-240.71"/>
</g>
<!-- touch -->
<g id="node7" class="node">
<title>touch</title>
<ellipse fill="none" stroke="black" cx="244" cy="-310" rx="36.29" ry="18"/>
<text text-anchor="middle" x="244" y="-306.3" font-family="Handlee" font-size="14.00">touch</text>
</g>
<!-- touch&#45;&gt;ReactiveDict -->
<g id="edge10" class="edge">
<title>touch&#45;&gt;ReactiveDict</title>
<path fill="none" stroke="black" d="M235.99,-292.28C229.02,-277.73 218.79,-256.39 210.7,-239.51"/>
<polygon fill="black" stroke="black" points="213.71,-237.68 206.23,-230.18 207.4,-240.71 213.71,-237.68"/>
</g>
<!-- pad -->
<g id="node8" class="node">
<title>pad</title>
<ellipse fill="none" stroke="black" cx="326" cy="-310" rx="27.9" ry="18"/>
<text text-anchor="middle" x="326" y="-306.3" font-family="Handlee" font-size="14.00">pad</text>
</g>
<!-- pad&#45;&gt;ReactiveDict -->
<g id="edge9" class="edge">
<title>pad&#45;&gt;ReactiveDict</title>
<path fill="none" stroke="black" d="M307.66,-296.38C301.74,-292.37 295.12,-287.95 289,-284 283.3,-280.32 281.54,-279.92 276,-276 258.37,-263.53 239.52,-248.36 224.76,-236.03"/>
<polygon fill="black" stroke="black" points="226.92,-233.27 217.02,-229.5 222.41,-238.62 226.92,-233.27"/>
</g>
<!-- thread&#45;&gt;stylus -->
<g id="edge5" class="edge">
<title>thread&#45;&gt;stylus</title>
<path fill="none" stroke="black" d="M254.51,-367.5C234.71,-356.59 206.64,-341.12 184.88,-329.12"/>
<polygon fill="black" stroke="black" points="186.43,-325.98 175.98,-324.22 183.05,-332.11 186.43,-325.98"/>
<text text-anchor="middle" x="190.77" y="-349.67" font-family="Times,serif" font-size="14.00">polling</text>
</g>
<!-- thread&#45;&gt;touch -->
<g id="edge7" class="edge">
<title>thread&#45;&gt;touch</title>
<path fill="none" stroke="black" d="M270.53,-364.05C266.44,-355.89 261.46,-345.91 256.91,-336.82"/>
<polygon fill="black" stroke="black" points="260,-335.17 252.39,-327.79 253.74,-338.3 260,-335.17"/>
</g>
<!-- thread&#45;&gt;pad -->
<g id="edge6" class="edge">
<title>thread&#45;&gt;pad</title>
<path fill="none" stroke="black" d="M290.14,-364.41C295.96,-355.74 303.19,-344.97 309.63,-335.38"/>
<polygon fill="black" stroke="black" points="312.6,-337.24 315.27,-326.99 306.78,-333.34 312.6,-337.24"/>
</g>
<!-- ReactiveDict&#45;&gt;OSCInterface -->
<g id="edge11" class="edge">
<title>ReactiveDict&#45;&gt;OSCInterface</title>
<path fill="none" stroke="black" d="M235.74,-197.1C246.46,-192.71 258.16,-187.5 271.22,-180.53"/>
<polygon fill="black" stroke="black" points="272.94,-183.58 280,-175.69 269.55,-177.46 272.94,-183.58"/>
</g>
<!-- plugins -->
<g id="node11" class="node">
<title>plugins</title>
<ellipse fill="none" stroke="black" cx="533" cy="-212" rx="44.39" ry="18"/>
<text text-anchor="middle" x="533" y="-208.3" font-family="Handlee" font-size="14.00">plugins</text>
</g>
<!-- plugins&#45;&gt;OSCInterface -->
<g id="edge12" class="edge">
<title>plugins&#45;&gt;OSCInterface</title>
<path fill="none" stroke="black" d="M508.14,-197.04C493.69,-188.93 474.49,-178.15 454.77,-167.08"/>
<polygon fill="black" stroke="black" points="456.43,-164 446,-162.16 453,-170.1 456.43,-164"/>
</g>
<!-- LILV -->
<g id="node17" class="node">
<title>LILV</title>
<polygon fill="none" stroke="black" points="798.91,-106.54 798.91,-121.46 780.8,-132 755.2,-132 737.09,-121.46 737.09,-106.54 755.2,-96 780.8,-96 798.91,-106.54"/>
<text text-anchor="middle" x="768" y="-110.3" font-family="Handlee" font-size="14.00">LILV</text>
</g>
<!-- plugins&#45;&gt;LILV -->
<g id="edge18" class="edge">
<title>plugins&#45;&gt;LILV</title>
<path fill="none" stroke="black" stroke-dasharray="5,2" d="M586.25,-206.86C635.8,-202.14 705.3,-193.08 728,-178 741.29,-169.17 751.04,-154.27 757.6,-141.17"/>
<polygon fill="black" stroke="black" points="585.64,-203.4 576,-207.8 586.28,-210.37 585.64,-203.4"/>
<polygon fill="black" stroke="black" points="760.79,-142.61 761.8,-132.06 754.43,-139.67 760.79,-142.61"/>
<text text-anchor="middle" x="635.42" y="-198.86" font-family="Times,serif" font-size="14.00">get ranges</text>
</g>
<!-- cfg_stylus -->
<g id="node12" class="node">
<title>cfg_stylus</title>
<ellipse fill="none" stroke="black" cx="226" cy="-114" rx="37.89" ry="18"/>
<text text-anchor="middle" x="226" y="-110.3" font-family="Handlee" font-size="14.00">stylus</text>
</g>
<!-- cfg_stylus&#45;&gt;MagicHandler -->
<g id="edge13" class="edge">
<title>cfg_stylus&#45;&gt;MagicHandler</title>
<path fill="none" stroke="black" d="M250.76,-100.16C256.78,-97.04 263.56,-93.52 270.74,-89.8"/>
<polygon fill="black" stroke="black" points="272.73,-92.71 280,-85 269.51,-86.5 272.73,-92.71"/>
</g>
<!-- cfg_pad -->
<g id="node13" class="node">
<title>cfg_pad</title>
<ellipse fill="none" stroke="black" cx="142" cy="-114" rx="27.9" ry="18"/>
<text text-anchor="middle" x="142" y="-110.3" font-family="Handlee" font-size="14.00">pad</text>
</g>
<!-- cfg_pad&#45;&gt;MagicHandler -->
<g id="edge14" class="edge">
<title>cfg_pad&#45;&gt;MagicHandler</title>
<path fill="none" stroke="black" d="M159.32,-99.45C165.3,-95.29 172.2,-91.02 179,-88 207.55,-75.31 240.28,-65.81 270.03,-58.89"/>
<polygon fill="black" stroke="black" points="271.02,-62.26 280,-56.64 269.48,-55.43 271.02,-62.26"/>
</g>
<!-- cfg_touch -->
<g id="node14" class="node">
<title>cfg_touch</title>
<ellipse fill="none" stroke="black" cx="60" cy="-114" rx="36.29" ry="18"/>
<text text-anchor="middle" x="60" y="-110.3" font-family="Handlee" font-size="14.00">touch</text>
</g>
<!-- cfg_touch&#45;&gt;MagicHandler -->
<g id="edge15" class="edge">
<title>cfg_touch&#45;&gt;MagicHandler</title>
<path fill="none" stroke="black" d="M81.28,-99.27C88.56,-95.1 96.91,-90.87 105,-88 158.04,-69.21 220.14,-58.04 269.9,-51.54"/>
<polygon fill="black" stroke="black" points="270.52,-54.99 280,-50.26 269.64,-48.04 270.52,-54.99"/>
</g>
<!-- WACOM -->
<g id="node16" class="node">
<title>WACOM</title>
<polygon fill="none" stroke="black" points="728.9,-457.54 728.9,-472.46 699.67,-483 658.33,-483 629.1,-472.46 629.1,-457.54 658.33,-447 699.67,-447 728.9,-457.54"/>
<text text-anchor="middle" x="679" y="-461.3" font-family="Handlee" font-size="14.00">WACOM</text>
</g>
<!-- WACOM&#45;&gt;thread -->
<g id="edge17" class="edge">
<title>WACOM&#45;&gt;thread</title>
<path fill="none" stroke="black" stroke-dasharray="5,2" d="M635.43,-455.18C559.28,-439.76 402.67,-408.04 324.9,-392.29"/>
<polygon fill="black" stroke="black" points="325.41,-388.83 314.92,-390.27 324.02,-395.69 325.41,-388.83"/>
<text text-anchor="middle" x="429.95" y="-426.48" font-family="Times,serif" font-size="14.00">input events</text>
</g>
</g>
</svg>
