<?xml version="1.0" encoding="UTF-8" standalone="no"?>
<!DOCTYPE svg PUBLIC "-//W3C//DTD SVG 1.1//EN"
 "http://www.w3.org/Graphics/SVG/1.1/DTD/svg11.dtd">
<!-- Generated by graphviz version 3.0.0 (0)
 -->
<!-- Pages: 1 -->
<svg width="532pt" height="609pt"
 viewBox="0.00 0.00 531.95 609.00" xmlns="http://www.w3.org/2000/svg" xmlns:xlink="http://www.w3.org/1999/xlink">
<g id="graph0" class="graph" transform="scale(1 1) rotate(0) translate(4 605)">
<polygon fill="white" stroke="transparent" points="-4,4 -4,-605 527.95,-605 527.95,4 -4,4"/>
<g id="clust1" class="cluster">
<title>cluster_wacosc</title>
<polygon fill="none" stroke="black" stroke-dasharray="1,5" points="8,-56 8,-593 416,-593 416,-56 8,-56"/>
<text text-anchor="middle" x="212" y="-577.8" font-family="Times,serif" font-size="14.00">WACOSC</text>
</g>
<g id="clust2" class="cluster">
<title>cluster_dev_map</title>
<polygon fill="none" stroke="black" points="169,-487 169,-562 388,-562 388,-487 169,-487"/>
<text text-anchor="middle" x="278.5" y="-546.8" font-family="Times,serif" font-size="14.00">find_devices_files</text>
</g>
<g id="clust3" class="cluster">
<title>cluster_carla</title>
<polygon fill="none" stroke="black" points="260,-64 260,-211 408,-211 408,-64 260,-64"/>
<text text-anchor="middle" x="334" y="-195.8" font-family="Times,serif" font-size="14.00">Carla</text>
</g>
<g id="clust4" class="cluster">
<title>cluster_wacom</title>
<polygon fill="none" stroke="black" points="122,-332 122,-479 359,-479 359,-332 122,-332"/>
<text text-anchor="middle" x="240.5" y="-463.8" font-family="Times,serif" font-size="14.00">Wacom</text>
</g>
<g id="clust5" class="cluster">
<title>cluster_reactivedict</title>
<polygon fill="none" stroke="black" points="139,-234 139,-309 275,-309 275,-234 139,-234"/>
<text text-anchor="middle" x="207" y="-293.8" font-family="Times,serif" font-size="14.00">ReactiveDict</text>
</g>
<g id="clust6" class="cluster">
<title>cluster_plugins</title>
<polygon fill="none" stroke="black" points="283,-234 283,-324 408,-324 408,-234 283,-234"/>
<text text-anchor="middle" x="345.5" y="-308.8" font-family="Times,serif" font-size="14.00">Plugins</text>
<text text-anchor="middle" x="345.5" y="-293.8" font-family="Times,serif" font-size="14.00">*user action needed</text>
</g>
<g id="clust7" class="cluster">
<title>cluster_config</title>
<polygon fill="none" stroke="black" points="16,-136 16,-226 252,-226 252,-136 16,-136"/>
<text text-anchor="middle" x="134" y="-210.8" font-family="Times,serif" font-size="14.00">Config</text>
<text text-anchor="middle" x="134" y="-195.8" font-family="Times,serif" font-size="14.00">*user action needed</text>
</g>
<!-- eviocgname -->
<g id="node1" class="node">
<title>eviocgname</title>
<ellipse fill="none" stroke="black" cx="322" cy="-513" rx="58.49" ry="18"/>
<text text-anchor="middle" x="322" y="-509.3" font-family="Handlee" font-size="14.00">eviocgname</text>
</g>
<!-- thread -->
<g id="node8" class="node">
<title>thread</title>
<ellipse fill="none" stroke="black" cx="267" cy="-430" rx="36" ry="18"/>
<text text-anchor="middle" x="267" y="-426.3" font-family="Handlee" font-size="14.00">thread</text>
</g>
<!-- eviocgname&#45;&gt;thread -->
<g id="edge1" class="edge">
<title>eviocgname&#45;&gt;thread</title>
<path fill="none" stroke="black" d="M310.6,-495.22C308.95,-492.78 307.18,-490.17 305.33,-487.45"/>
<polygon fill="black" stroke="black" points="308.1,-485.3 299.59,-479 302.31,-489.23 308.1,-485.3"/>
</g>
<!-- evdev -->
<g id="node2" class="node">
<title>evdev</title>
<ellipse fill="none" stroke="black" cx="211" cy="-513" rx="34.39" ry="18"/>
<text text-anchor="middle" x="211" y="-509.3" font-family="Handlee" font-size="14.00">evdev</text>
</g>
<!-- evdev&#45;&gt;thread -->
<g id="edge2" class="edge">
<title>evdev&#45;&gt;thread</title>
<path fill="none" stroke="black" d="M222.33,-495.61C224.1,-493.05 226.01,-490.29 228,-487.41"/>
<polygon fill="black" stroke="black" points="231.01,-489.21 233.82,-479 225.25,-485.23 231.01,-489.21"/>
</g>
<!-- OSCInterface -->
<g id="node3" class="node">
<title>OSCInterface</title>
<ellipse fill="none" stroke="black" cx="334" cy="-162" rx="64.19" ry="18"/>
<text text-anchor="middle" x="334" y="-158.3" font-family="Handlee" font-size="14.00">OSCInterface</text>
</g>
<!-- MagicHandler -->
<g id="node4" class="node">
<title>MagicHandler</title>
<ellipse fill="none" stroke="black" cx="334" cy="-90" rx="65.79" ry="18"/>
<text text-anchor="middle" x="334" y="-86.3" font-family="Handlee" font-size="14.00">MagicHandler</text>
</g>
<!-- OSCInterface&#45;&gt;MagicHandler -->
<g id="edge11" class="edge">
<title>OSCInterface&#45;&gt;MagicHandler</title>
<path fill="none" stroke="black" d="M334,-133.67C334,-128.69 334,-123.49 334,-118.51"/>
<polygon fill="black" stroke="black" points="330.5,-133.7 334,-143.7 337.5,-133.7 330.5,-133.7"/>
<polygon fill="black" stroke="black" points="337.5,-118.1 334,-108.1 330.5,-118.1 337.5,-118.1"/>
</g>
<!-- CARLA -->
<g id="node14" class="node">
<title>CARLA</title>
<polygon fill="none" stroke="black" points="377.73,-10.54 377.73,-25.46 352.11,-36 315.89,-36 290.27,-25.46 290.27,-10.54 315.89,0 352.11,0 377.73,-10.54"/>
<text text-anchor="middle" x="334" y="-14.3" font-family="Handlee" font-size="14.00">CARLA</text>
</g>
<!-- MagicHandler&#45;&gt;CARLA -->
<g id="edge15" class="edge">
<title>MagicHandler&#45;&gt;CARLA</title>
<path fill="none" stroke="black" stroke-dasharray="5,2" d="M334,-61.67C334,-56.69 334,-51.49 334,-46.51"/>
<polygon fill="black" stroke="black" points="330.5,-61.7 334,-71.7 337.5,-61.7 330.5,-61.7"/>
<polygon fill="black" stroke="black" points="337.5,-46.1 334,-36.1 330.5,-46.1 337.5,-46.1"/>
<text text-anchor="middle" x="320.5" y="-57.41" font-family="Times,serif" font-size="14.00">OSC</text>
</g>
<!-- stylus -->
<g id="node5" class="node">
<title>stylus</title>
<ellipse fill="none" stroke="black" cx="163" cy="-358" rx="33.29" ry="18"/>
<text text-anchor="middle" x="163" y="-354.3" font-family="Handlee" font-size="14.00">stylus</text>
</g>
<!-- ReactiveDict -->
<g id="node9" class="node">
<title>ReactiveDict</title>
<ellipse fill="none" stroke="black" cx="207" cy="-260" rx="59.59" ry="18"/>
<text text-anchor="middle" x="207" y="-256.3" font-family="Handlee" font-size="14.00">ReactiveDict</text>
</g>
<!-- stylus&#45;&gt;ReactiveDict -->
<g id="edge6" class="edge">
<title>stylus&#45;&gt;ReactiveDict</title>
<path fill="none" stroke="black" d="M170.66,-340.28C177.37,-325.64 187.23,-304.12 194.99,-287.2"/>
<polygon fill="black" stroke="black" points="198.29,-288.4 199.28,-277.85 191.93,-285.48 198.29,-288.4"/>
</g>
<!-- touch -->
<g id="node6" class="node">
<title>touch</title>
<ellipse fill="none" stroke="black" cx="247" cy="-358" rx="32.49" ry="18"/>
<text text-anchor="middle" x="247" y="-354.3" font-family="Handlee" font-size="14.00">touch</text>
</g>
<!-- touch&#45;&gt;ReactiveDict -->
<g id="edge8" class="edge">
<title>touch&#45;&gt;ReactiveDict</title>
<path fill="none" stroke="black" d="M240.03,-340.28C233.97,-325.73 225.08,-304.39 218.05,-287.51"/>
<polygon fill="black" stroke="black" points="221.23,-286.06 214.16,-278.18 214.77,-288.75 221.23,-286.06"/>
</g>
<!-- pad -->
<g id="node7" class="node">
<title>pad</title>
<ellipse fill="none" stroke="black" cx="324" cy="-358" rx="27" ry="18"/>
<text text-anchor="middle" x="324" y="-354.3" font-family="Handlee" font-size="14.00">pad</text>
</g>
<!-- pad&#45;&gt;ReactiveDict -->
<g id="edge7" class="edge">
<title>pad&#45;&gt;ReactiveDict</title>
<path fill="none" stroke="black" d="M305.78,-344.18C297.48,-338.21 287.62,-330.91 279,-324 263.08,-311.23 245.85,-296.21 232.24,-284.03"/>
<polygon fill="black" stroke="black" points="234.46,-281.32 224.68,-277.23 229.78,-286.52 234.46,-281.32"/>
</g>
<!-- thread&#45;&gt;stylus -->
<g id="edge3" class="edge">
<title>thread&#45;&gt;stylus</title>
<path fill="none" stroke="black" d="M246.45,-415.17C230.83,-404.65 209.13,-390.05 191.77,-378.37"/>
<polygon fill="black" stroke="black" points="193.4,-375.24 183.15,-372.56 189.49,-381.05 193.4,-375.24"/>
<text text-anchor="middle" x="195.33" y="-397.68" font-family="Times,serif" font-size="14.00">polling</text>
</g>
<!-- thread&#45;&gt;touch -->
<g id="edge5" class="edge">
<title>thread&#45;&gt;touch</title>
<path fill="none" stroke="black" d="M262.16,-412.05C259.93,-404.26 257.23,-394.82 254.74,-386.08"/>
<polygon fill="black" stroke="black" points="258.05,-384.93 251.94,-376.28 251.32,-386.85 258.05,-384.93"/>
</g>
<!-- thread&#45;&gt;pad -->
<g id="edge4" class="edge">
<title>thread&#45;&gt;pad</title>
<path fill="none" stroke="black" d="M279.93,-413.12C287.32,-404.04 296.73,-392.49 304.95,-382.39"/>
<polygon fill="black" stroke="black" points="307.91,-384.3 311.51,-374.34 302.48,-379.88 307.91,-384.3"/>
</g>
<!-- ReactiveDict&#45;&gt;OSCInterface -->
<g id="edge9" class="edge">
<title>ReactiveDict&#45;&gt;OSCInterface</title>
<path fill="none" stroke="black" d="M231.21,-243.3C239.21,-237.95 248.08,-231.85 256,-226 273.37,-213.17 292.22,-197.99 307.03,-185.74"/>
<polygon fill="black" stroke="black" points="309.36,-188.36 314.82,-179.27 304.89,-182.97 309.36,-188.36"/>
</g>
<!-- plugins -->
<g id="node10" class="node">
<title>plugins</title>
<ellipse fill="none" stroke="black" cx="348" cy="-260" rx="38.19" ry="18"/>
<text text-anchor="middle" x="348" y="-256.3" font-family="Handlee" font-size="14.00">plugins</text>
</g>
<!-- plugins&#45;&gt;OSCInterface -->
<g id="edge10" class="edge">
<title>plugins&#45;&gt;OSCInterface</title>
<path fill="none" stroke="black" d="M345.5,-241.84C343.41,-227.5 340.39,-206.81 337.97,-190.22"/>
<polygon fill="black" stroke="black" points="341.39,-189.4 336.48,-180.01 334.46,-190.41 341.39,-189.4"/>
</g>
<!-- LILV -->
<g id="node16" class="node">
<title>LILV</title>
<polygon fill="none" stroke="black" points="484,-154.54 484,-169.46 466.43,-180 441.57,-180 424,-169.46 424,-154.54 441.57,-144 466.43,-144 484,-154.54"/>
<text text-anchor="middle" x="454" y="-158.3" font-family="Handlee" font-size="14.00">LILV</text>
</g>
<!-- plugins&#45;&gt;LILV -->
<g id="edge17" class="edge">
<title>plugins&#45;&gt;LILV</title>
<path fill="none" stroke="black" stroke-dasharray="5,2" d="M385.75,-243.54C394.93,-238.74 404.31,-232.87 412,-226 423.56,-215.67 433.38,-201.48 440.61,-189.19"/>
<polygon fill="black" stroke="black" points="384.14,-240.44 376.7,-247.98 387.22,-246.72 384.14,-240.44"/>
<polygon fill="black" stroke="black" points="443.79,-190.69 445.63,-180.25 437.68,-187.26 443.79,-190.69"/>
<text text-anchor="middle" x="389.8" y="-224.16" font-family="Times,serif" font-size="14.00">get ranges</text>
</g>
<!-- cfg_stylus -->
<g id="node11" class="node">
<title>cfg_stylus</title>
<ellipse fill="none" stroke="black" cx="211" cy="-162" rx="33.29" ry="18"/>
<text text-anchor="middle" x="211" y="-158.3" font-family="Handlee" font-size="14.00">stylus</text>
</g>
<!-- cfg_stylus&#45;&gt;MagicHandler -->
<g id="edge12" class="edge">
<title>cfg_stylus&#45;&gt;MagicHandler</title>
<path fill="none" stroke="black" d="M232.99,-148.49C250.93,-138.28 276.64,-123.64 297.63,-111.7"/>
<polygon fill="black" stroke="black" points="299.64,-114.58 306.6,-106.59 296.18,-108.5 299.64,-114.58"/>
</g>
<!-- cfg_pad -->
<g id="node12" class="node">
<title>cfg_pad</title>
<ellipse fill="none" stroke="black" cx="133" cy="-162" rx="27" ry="18"/>
<text text-anchor="middle" x="133" y="-158.3" font-family="Handlee" font-size="14.00">pad</text>
</g>
<!-- cfg_pad&#45;&gt;MagicHandler -->
<g id="edge13" class="edge">
<title>cfg_pad&#45;&gt;MagicHandler</title>
<path fill="none" stroke="black" d="M149.85,-147.53C155.66,-143.38 162.38,-139.09 169,-136 201.17,-120.99 239.28,-110.18 270.77,-102.93"/>
<polygon fill="black" stroke="black" points="271.75,-106.3 280.74,-100.7 270.22,-99.47 271.75,-106.3"/>
</g>
<!-- cfg_touch -->
<g id="node13" class="node">
<title>cfg_touch</title>
<ellipse fill="none" stroke="black" cx="56" cy="-162" rx="32.49" ry="18"/>
<text text-anchor="middle" x="56" y="-158.3" font-family="Handlee" font-size="14.00">touch</text>
</g>
<!-- cfg_touch&#45;&gt;MagicHandler -->
<g id="edge14" class="edge">
<title>cfg_touch&#45;&gt;MagicHandler</title>
<path fill="none" stroke="black" d="M75.27,-147.28C81.9,-143.11 89.53,-138.88 97,-136 150.45,-115.41 214.44,-103.98 262.45,-97.8"/>
<polygon fill="black" stroke="black" points="262.95,-101.26 272.44,-96.55 262.08,-94.31 262.95,-101.26"/>
</g>
<!-- WACOM -->
<g id="node15" class="node">
<title>WACOM</title>
<polygon fill="none" stroke="black" points="523.9,-505.54 523.9,-520.46 494.67,-531 453.33,-531 424.1,-520.46 424.1,-505.54 453.33,-495 494.67,-495 523.9,-505.54"/>
<text text-anchor="middle" x="474" y="-509.3" font-family="Handlee" font-size="14.00">WACOM</text>
</g>
<!-- WACOM&#45;&gt;thread -->
<g id="edge16" class="edge">
<title>WACOM&#45;&gt;thread</title>
<path fill="none" stroke="black" stroke-dasharray="5,2" d="M441.2,-499.17C403.79,-484.53 342.76,-460.65 303.77,-445.39"/>
<polygon fill="black" stroke="black" points="304.95,-442.09 294.36,-441.71 302.39,-448.61 304.95,-442.09"/>
<text text-anchor="middle" x="334.34" y="-474.26" font-family="Times,serif" font-size="14.00">input events</text>
</g>
</g>
</svg>
