<?xml version="1.0" encoding="UTF-8" standalone="no"?>
<!DOCTYPE svg PUBLIC "-//W3C//DTD SVG 1.1//EN"
 "http://www.w3.org/Graphics/SVG/1.1/DTD/svg11.dtd">
<!-- Generated by graphviz version 3.0.0 (0)
 -->
<!-- Pages: 1 -->
<svg width="418pt" height="532pt"
 viewBox="0.00 0.00 418.00 532.00" xmlns="http://www.w3.org/2000/svg" xmlns:xlink="http://www.w3.org/1999/xlink">
<g id="graph0" class="graph" transform="scale(1 1) rotate(0) translate(4 528)">
<polygon fill="white" stroke="transparent" points="-4,4 -4,-528 414,-528 414,4 -4,4"/>
<g id="clust1" class="cluster">
<title>cluster_wacosc</title>
<polygon fill="none" stroke="black" stroke-dasharray="1,5" points="8,-56 8,-480 402,-480 402,-56 8,-56"/>
<text text-anchor="middle" x="205" y="-464.8" font-family="Times,serif" font-size="14.00">WACOSC</text>
</g>
<g id="clust2" class="cluster">
<title>cluster_carla</title>
<polygon fill="none" stroke="black" points="254,-64 254,-211 394,-211 394,-64 254,-64"/>
<text text-anchor="middle" x="324" y="-195.8" font-family="Times,serif" font-size="14.00">Carla</text>
</g>
<g id="clust3" class="cluster">
<title>cluster_wacom</title>
<polygon fill="none" stroke="black" points="164,-302 164,-449 394,-449 394,-302 164,-302"/>
<text text-anchor="middle" x="279" y="-433.8" font-family="Times,serif" font-size="14.00">Wacom</text>
</g>
<g id="clust4" class="cluster">
<title>cluster_reactivedict</title>
<polygon fill="none" stroke="black" points="237,-219 237,-294 367,-294 367,-219 237,-219"/>
<text text-anchor="middle" x="302" y="-278.8" font-family="Times,serif" font-size="14.00">reactivedict</text>
</g>
<g id="clust5" class="cluster">
<title>cluster_config</title>
<polygon fill="none" stroke="black" points="16,-136 16,-211 246,-211 246,-136 16,-136"/>
<text text-anchor="middle" x="131" y="-195.8" font-family="Times,serif" font-size="14.00">Config</text>
</g>
<!-- OSCInterface -->
<g id="node1" class="node">
<title>OSCInterface</title>
<ellipse fill="none" stroke="black" cx="322" cy="-162" rx="59.29" ry="18"/>
<text text-anchor="middle" x="322" y="-158.3" font-family="Times,serif" font-size="14.00">OSCInterface</text>
</g>
<!-- MagicHandler -->
<g id="node2" class="node">
<title>MagicHandler</title>
<ellipse fill="none" stroke="black" cx="324" cy="-90" rx="61.99" ry="18"/>
<text text-anchor="middle" x="324" y="-86.3" font-family="Times,serif" font-size="14.00">MagicHandler</text>
</g>
<!-- OSCInterface&#45;&gt;MagicHandler -->
<g id="edge8" class="edge">
<title>OSCInterface&#45;&gt;MagicHandler</title>
<path fill="none" stroke="black" d="M322.49,-143.7C322.71,-135.98 322.98,-126.71 323.23,-118.11"/>
<polygon fill="black" stroke="black" points="326.72,-118.2 323.51,-108.1 319.73,-118 326.72,-118.2"/>
</g>
<!-- CARLA -->
<g id="node11" class="node">
<title>CARLA</title>
<ellipse fill="none" stroke="black" cx="324" cy="-18" rx="40.09" ry="18"/>
<text text-anchor="middle" x="324" y="-14.3" font-family="Times,serif" font-size="14.00">CARLA</text>
</g>
<!-- MagicHandler&#45;&gt;CARLA -->
<g id="edge12" class="edge">
<title>MagicHandler&#45;&gt;CARLA</title>
<path fill="none" stroke="black" stroke-dasharray="5,2" d="M324,-71.7C324,-63.98 324,-54.71 324,-46.11"/>
<polygon fill="black" stroke="black" points="327.5,-46.1 324,-36.1 320.5,-46.1 327.5,-46.1"/>
<text text-anchor="middle" x="310.5" y="-57.69" font-family="Times,serif" font-size="14.00">OSC</text>
</g>
<!-- stylus -->
<g id="node3" class="node">
<title>stylus</title>
<ellipse fill="none" stroke="black" cx="203" cy="-328" rx="31.4" ry="18"/>
<text text-anchor="middle" x="203" y="-324.3" font-family="Times,serif" font-size="14.00">stylus</text>
</g>
<!-- ReactiveDict -->
<g id="node7" class="node">
<title>ReactiveDict</title>
<ellipse fill="none" stroke="black" cx="302" cy="-245" rx="56.59" ry="18"/>
<text text-anchor="middle" x="302" y="-241.3" font-family="Times,serif" font-size="14.00">ReactiveDict</text>
</g>
<!-- stylus&#45;&gt;ReactiveDict -->
<g id="edge4" class="edge">
<title>stylus&#45;&gt;ReactiveDict</title>
<path fill="none" stroke="black" d="M220.24,-312.89C235.1,-300.74 256.82,-282.97 274.13,-268.8"/>
<polygon fill="black" stroke="black" points="276.71,-271.21 282.23,-262.17 272.28,-265.8 276.71,-271.21"/>
</g>
<!-- touch -->
<g id="node4" class="node">
<title>touch</title>
<ellipse fill="none" stroke="black" cx="283" cy="-328" rx="30.59" ry="18"/>
<text text-anchor="middle" x="283" y="-324.3" font-family="Times,serif" font-size="14.00">touch</text>
</g>
<!-- touch&#45;&gt;ReactiveDict -->
<g id="edge6" class="edge">
<title>touch&#45;&gt;ReactiveDict</title>
<path fill="none" stroke="black" d="M287.03,-309.82C289.52,-299.19 292.78,-285.31 295.62,-273.2"/>
<polygon fill="black" stroke="black" points="299.1,-273.69 297.98,-263.15 292.29,-272.09 299.1,-273.69"/>
</g>
<!-- pad -->
<g id="node5" class="node">
<title>pad</title>
<ellipse fill="none" stroke="black" cx="359" cy="-328" rx="27" ry="18"/>
<text text-anchor="middle" x="359" y="-324.3" font-family="Times,serif" font-size="14.00">pad</text>
</g>
<!-- pad&#45;&gt;ReactiveDict -->
<g id="edge5" class="edge">
<title>pad&#45;&gt;ReactiveDict</title>
<path fill="none" stroke="black" d="M348.01,-311.38C339.94,-299.92 328.82,-284.11 319.53,-270.91"/>
<polygon fill="black" stroke="black" points="322.36,-268.85 313.74,-262.69 316.63,-272.88 322.36,-268.85"/>
</g>
<!-- thread -->
<g id="node6" class="node">
<title>thread</title>
<ellipse fill="none" stroke="black" cx="283" cy="-400" rx="32.49" ry="18"/>
<text text-anchor="middle" x="283" y="-396.3" font-family="Times,serif" font-size="14.00">thread</text>
</g>
<!-- thread&#45;&gt;stylus -->
<g id="edge1" class="edge">
<title>thread&#45;&gt;stylus</title>
<path fill="none" stroke="black" d="M266.42,-384.5C255.16,-374.64 240.07,-361.44 227.44,-350.38"/>
<polygon fill="black" stroke="black" points="229.39,-347.44 219.55,-343.49 224.78,-352.7 229.39,-347.44"/>
<text text-anchor="middle" x="223.49" y="-367.79" font-family="Times,serif" font-size="14.00">polling</text>
</g>
<!-- thread&#45;&gt;touch -->
<g id="edge3" class="edge">
<title>thread&#45;&gt;touch</title>
<path fill="none" stroke="black" d="M283,-381.7C283,-373.98 283,-364.71 283,-356.11"/>
<polygon fill="black" stroke="black" points="286.5,-356.1 283,-346.1 279.5,-356.1 286.5,-356.1"/>
</g>
<!-- thread&#45;&gt;pad -->
<g id="edge2" class="edge">
<title>thread&#45;&gt;pad</title>
<path fill="none" stroke="black" d="M299.12,-384.15C309.91,-374.21 324.28,-360.98 336.24,-349.97"/>
<polygon fill="black" stroke="black" points="338.7,-352.46 343.68,-343.11 333.96,-347.31 338.7,-352.46"/>
</g>
<!-- ReactiveDict&#45;&gt;OSCInterface -->
<g id="edge7" class="edge">
<title>ReactiveDict&#45;&gt;OSCInterface</title>
<path fill="none" stroke="black" d="M306.24,-226.82C308.87,-216.19 312.29,-202.31 315.28,-190.2"/>
<polygon fill="black" stroke="black" points="318.77,-190.7 317.76,-180.15 311.97,-189.02 318.77,-190.7"/>
</g>
<!-- cfg_stylus -->
<g id="node8" class="node">
<title>cfg_stylus</title>
<ellipse fill="none" stroke="black" cx="207" cy="-162" rx="31.4" ry="18"/>
<text text-anchor="middle" x="207" y="-158.3" font-family="Times,serif" font-size="14.00">stylus</text>
</g>
<!-- cfg_stylus&#45;&gt;MagicHandler -->
<g id="edge9" class="edge">
<title>cfg_stylus&#45;&gt;MagicHandler</title>
<path fill="none" stroke="black" d="M227.92,-148.49C244.9,-138.32 269.22,-123.77 289.14,-111.86"/>
<polygon fill="black" stroke="black" points="291.16,-114.73 297.94,-106.59 287.56,-108.72 291.16,-114.73"/>
</g>
<!-- cfg_pad -->
<g id="node9" class="node">
<title>cfg_pad</title>
<ellipse fill="none" stroke="black" cx="131" cy="-162" rx="27" ry="18"/>
<text text-anchor="middle" x="131" y="-158.3" font-family="Times,serif" font-size="14.00">pad</text>
</g>
<!-- cfg_pad&#45;&gt;MagicHandler -->
<g id="edge10" class="edge">
<title>cfg_pad&#45;&gt;MagicHandler</title>
<path fill="none" stroke="black" d="M147.88,-147.58C153.69,-143.43 160.4,-139.13 167,-136 197.84,-121.37 234.4,-110.54 264.47,-103.18"/>
<polygon fill="black" stroke="black" points="265.48,-106.54 274.4,-100.82 263.86,-99.73 265.48,-106.54"/>
</g>
<!-- cfg_touch -->
<g id="node10" class="node">
<title>cfg_touch</title>
<ellipse fill="none" stroke="black" cx="55" cy="-162" rx="30.59" ry="18"/>
<text text-anchor="middle" x="55" y="-158.3" font-family="Times,serif" font-size="14.00">touch</text>
</g>
<!-- cfg_touch&#45;&gt;MagicHandler -->
<g id="edge11" class="edge">
<title>cfg_touch&#45;&gt;MagicHandler</title>
<path fill="none" stroke="black" d="M73.37,-147.56C79.92,-143.3 87.54,-138.95 95,-136 146.96,-115.47 209.38,-104 255.92,-97.79"/>
<polygon fill="black" stroke="black" points="256.42,-101.25 265.89,-96.5 255.53,-94.31 256.42,-101.25"/>
</g>
<!-- WACOM -->
<g id="node12" class="node">
<title>WACOM</title>
<ellipse fill="none" stroke="black" cx="283" cy="-506" rx="45.49" ry="18"/>
<text text-anchor="middle" x="283" y="-502.3" font-family="Times,serif" font-size="14.00">WACOM</text>
</g>
<!-- WACOM&#45;&gt;thread -->
<g id="edge13" class="edge">
<title>WACOM&#45;&gt;thread</title>
<path fill="none" stroke="black" stroke-dasharray="5,2" d="M283,-487.83C283,-471.64 283,-447.13 283,-428.27"/>
<polygon fill="black" stroke="black" points="286.5,-428.2 283,-418.2 279.5,-428.2 286.5,-428.2"/>
<text text-anchor="middle" x="265.5" y="-456.92" font-family="Times,serif" font-size="14.00">events</text>
</g>
</g>
</svg>
